/* XPM */
static char *coin1740220234[] = {
/* columns rows colors chars-per-pixel */
"32 32 59 1 ",
"  c #6FC0A0",
". c #72C1A2",
"X c #70C0A1",
"o c #6DBF9E",
"O c #68BD9A",
"+ c #6BBE9C",
"@ c #78C3A6",
"# c #76C2A4",
"$ c #6EBF9F",
"% c #63BB96",
"& c #5BB891",
"* c #7CC4A8",
"= c #5FBA94",
"- c #6EC09F",
"; c #83C7AD",
": c #88C8B0",
"> c #7FC5AA",
", c #74C2A3",
"< c #51B48B",
"1 c #861B2C",
"2 c #473236",
"3 c #4AB185",
"4 c #5C5556",
"5 c #711F2C",
"6 c #79888D",
"7 c #8F9B9F",
"8 c #A8324E",
"9 c #85BDA9",
"0 c #953249",
"q c #A1A6A9",
"w c #80C5AB",
"e c #7EB6A2",
"r c #4F4B50",
"t c #932238",
"y c #9FACBE",
"u c #6A6969",
"i c #848E9A",
"p c #5B3C44",
"a c #70AB93",
"s c #5E8576",
"d c #5D5C5F",
"f c #7A7E89",
"g c #8793A1",
"h c #8C9FA3",
"j c #66A58B",
"k c #689D8A",
"l c #833346",
"z c #63323E",
"x c #709690",
"c c #D4D8DF",
"v c #C76F85",
"b c #97455A",
"n c #6F7171",
"m c #5A987E",
"M c #D4A3AF",
"N c #AF4D62",
"B c #C6CBD5",
"V c #C5CBD5",
"C c #CCD6E1",
/* pixels */
"    .>@      .>@       .**Xo%O  ",
"    ,:>X o%O-#:>       .;;.+&%O=",
"    X#.  +3<+$..       X,.X-+o&3",
"         o=%O&O   XX        XXO&",
".           +=+  #;@       .w*X ",
"#@@X     .@@ +&% @:@@@.    .;>#*",
".;;.     .:;.O3&-X..;:.    X..*:",
"X##X  $$ X##Xo%Oo   ##X  $o   .@",
"     $%=$     -%=$       %=o    ",
"     $%%$  X.$+&&+       %=o    ",
"$   .@.-  X an444ua$.  X@#      ",
"+O+ ,:>X   e4b8880rj-+-.;;.     ",
"O<<oX@#  .a4bMv8tt04m&+ #@X     ",
"o&&O=+  .jul0vNt11tldk+=O       ",
".$-O&O  ,sz81t555118zso&O  .*@  ",
"### +%O ,sp015pr2510p6,+%O-,:w.#",
",;;.O3&-.xr252qqd25247@+3<o.#,*:",
".*@X+&%-.kfip2n6d226fh,o==o   #*",
"     $%%-eqgi7uru7igh9.  O%o    ",
"     $==o.97yCqfqcy7e@   %&+    ",
"    X. o  X9gyVcByie,X X.Xo$+o  ",
"    ,:>X  o-97666x9.   .;;.o&%oo",
"    .>@  +<& .*#$$..   .**Xo%O=<",
"     X   +<&+O-.        X     =3",
".         +oO&O  .@.       X#,o+",
"#..      X..oOOo @:*..X    ,:w..",
",;w.     .;>.O3&-.*#>;.    .*@*:",
".>*X     .>*XO<=   X*>.       @;",
" XX  -OO- XX  oOO-  XX   +Oo  XX",
"     $=&o     $&&$       %&+    ",
"    X.++-    X.++$o-    .oO$    ",
"o   .;*X     .;*X+=O   .>>.     "
};
