/* XPM */
static char *enemy1740220234[] = {
/* columns rows colors chars-per-pixel */
"32 32 171 2 ",
"   c #6FC0A0",
".  c #74C2A3",
"X  c #E67F48",
"o  c #6FC2A2",
"O  c #6DBF9E",
"+  c #70C0A1",
"@  c #78C3A5",
"#  c #70C1A1",
"$  c #7FC5AA",
"%  c #70C0A0",
"&  c #67BD9A",
"*  c #62BC96",
"=  c #7B4122",
"-  c #7BC4A8",
";  c #6BBE9C",
":  c #1E1009",
">  c #8B4822",
",  c #82C7AD",
"<  c #2F4755",
"1  c #854829",
"2  c #779E7B",
"3  c #87C8AF",
"4  c #5EBA93",
"5  c #6C987A",
"6  c #E37C46",
"7  c #777451",
"8  c #60331A",
"9  c #713D23",
"0  c #455140",
"q  c #E07B46",
"w  c #E5C972",
"e  c #71C4A3",
"r  c #71BF9E",
"t  c #312B20",
"y  c #844422",
"u  c #66351E",
"i  c #3F545C",
"p  c #6BC19F",
"a  c #748E6A",
"s  c #D57644",
"d  c #6F431E",
"f  c #94502E",
"g  c #DB7946",
"h  c #694822",
"j  c #AB5E31",
"k  c #C76B3C",
"l  c #5F4335",
"z  c #9F542D",
"x  c #904B27",
"c  c #BF9B45",
"v  c #6FB897",
"b  c #76B494",
"n  c #855835",
"m  c #291C0F",
"M  c #666541",
"N  c #67391B",
"B  c #8B4B27",
"V  c #2C261C",
"C  c #B25E35",
"Z  c #65431E",
"A  c #725F3A",
"S  c #AC5931",
"D  c #5B4924",
"F  c #995029",
"G  c #3B2013",
"H  c #B9653B",
"J  c #314A58",
"K  c #70A588",
"L  c #4CB388",
"P  c #726859",
"I  c #41646B",
"U  c #6DB096",
"Y  c #72B090",
"T  c #74A28B",
"R  c #3C4C54",
"E  c #465D61",
"W  c #75BB9C",
"Q  c #CB6D3F",
"!  c #9E5E30",
"~  c #588267",
"^  c #6C4D27",
"/  c #364A3C",
"(  c #C5693A",
")  c #6C381E",
"_  c #A5572E",
"`  c #895F46",
"'  c #B66035",
"]  c #CBA64D",
"[  c #D3AD4E",
"{  c #D9B558",
"}  c #C97144",
"|  c #8E5C27",
" . c #977434",
".. c #EBD27E",
"X. c #E0BE62",
"o. c #5AB891",
"O. c #68B995",
"+. c #4E7863",
"@. c #E27F49",
"#. c #73AD8E",
"$. c #7D542E",
"%. c #638E6F",
"&. c #55807D",
"*. c #8A5B3F",
"=. c #75AE8B",
"-. c #374752",
";. c #698A67",
":. c #63B088",
">. c #344A3C",
",. c #799775",
"<. c #5C937B",
"1. c #689A83",
"2. c #537775",
"3. c #B5805C",
"4. c #747162",
"5. c #5B483E",
"6. c #4E7A7B",
"7. c #717569",
"8. c #BDB5BD",
"9. c #7A7B53",
"0. c #D7A9A1",
"q. c #E1A38C",
"w. c #9D9393",
"e. c #768965",
"r. c #4B8077",
"t. c #40696A",
"y. c #C68B75",
"u. c #707B5E",
"i. c #916B54",
"p. c #59B58C",
"a. c #583713",
"s. c #608761",
"d. c #593722",
"f. c #B26E4C",
"g. c #2C3D48",
"h. c #726F49",
"j. c #665C4F",
"k. c #714B1C",
"l. c #735847",
"z. c #754E1D",
"x. c #1D2323",
"c. c #4D2A18",
"v. c #A86D35",
"b. c #886755",
"n. c #955833",
"m. c #B2913F",
"M. c #A27632",
"N. c #7C642B",
"B. c #DDBB60",
"V. c #A7816B",
"C. c #44AF81",
"Z. c #3A3628",
"A. c #3A3A2B",
"S. c #5AA87E",
"D. c #58664F",
"F. c #758863",
"G. c #527D7D",
"H. c #8C5236",
"J. c #374652",
"K. c #E59B7C",
"L. c #E59D80",
"P. c #836C52",
"I. c #2F4554",
"U. c #7BBFA0",
"Y. c #829E82",
"T. c #425E4C",
"R. c #5C5450",
"E. c #6C625E",
"W. c #435E4B",
"Q. c #B9803C",
"!. c #B67E3B",
/* pixels */
"        # $ @             . $ @               + - - + O * & O   ",
"        . 3 $ %   O * &   . 3 $       # #     # , , # O o.* & 4 ",
"        + . .   % ; L S.=.O . #     # =.Y #   % . .   O O O o.C.",
"                % O :.9.h.:.&     r b 7 9.b             + + & o.",
".                   7 ! ! 7 v   # W 7 ! ! 7 O         # $ - +   ",
". @ @ +           % 0 1 j A :.& o W A j 1 0 r         . , $ . - ",
". 3 , #           + / = j h h.7 7 7 h j = / +         + # # - 3 ",
"+ . . %     O O   % / = k B y S S y B k = / %       O       . @ ",
"            * * #   >.9 g H B g g B H g 9 >.  o # * 4 O         ",
"        # # O.5 2 b 0 ) Q k S q q S k Q ) 0 b 2 2 O.* O         ",
"        v Y 2 ^ Z ,.M y k s ( 6 6 ( s k y M ,.Z ^ 2 #.v         ",
"; & ;   a h d F d a M 9 C 6 q X X 6 6 C 9 M a d F d h a         ",
"& L p.F.$.f 1 _ N V d.j g X X X X X X g j d.V N _ 1 f $.e.r     ",
"O p.%.$.*.4.P B 8 : u y.q.X X X X X X q.y.u : 8 B P 4.*.n a r   ",
"+ F.n n 7.&.2.5.N : 1 0.8.3.@.X X @.3.8.0.1 : u 5.2.&.7.n n a   ",
"@ M > i.&.6.I R 9 : H.K.w.P s X X s P w.L.f : 9 R I 6.G.i.> A U.",
",.A x b.r.t.J -.l G 1 s f.` Q X X Q *.f.s 1 G l -.J I r.P.x A Y.",
"h f f j.I J < < -.l 8 z q @.X X X X q q z 8 l J.< J < t.j.f F h ",
"Z > l.E E i < < I.g.V 8 H 6 q X X q X ' 8 V g.< < < i E E l.> Z ",
"^ d u.U U 1.i i R x.) u 9 } } q q } } 9 u ) x.R i i <.U U u.d ^ ",
"2 2 #.o e W T T 5 D _ ' y ` V.H H V.` y C _ D 5 T T v # p =.2 2 ",
"o # #   . 3 , Y 0 n.( F |  .l G G l  .| F ( n.0 b , # ; o.* p p ",
"        # $ #.>.: x z | c ]  .N.N. .] c | z x V K $ + O * & 4 L ",
"          # 5 : G = = M.B.w X.X.X.X.w B.M.= = d.D.Y #       4 L ",
"#         # 5 m y > B !.{ w ........w { Q.B x x m 5 # + . . O ; ",
". # #     # K A.8 z ' v.m.{ w w w w { m.v.' C > m 5 # . 3 $ # . ",
". , $ #     r 5 t = C N D c [ [ [ [ c Z u S z N t 1.# # - @ - 3 ",
"# $ - +     o K t 8 1 = c.D c ] ] c D c.= B u t %.r         @ , ",
"  + +       & O.<.Z.: : m a.k.z.z.k.m R.b.` E.t K p & O     % + ",
"            4 4 ; %.+.+.~ ;.;.s.s.;.~ 0 t t 0 ~ v * o.O         ",
"        % + ; ;   o e e e e e p p o # ~ W.T.+.W o O & O         ",
"O       . , - %           . , - % ; 4 ; # # # # $ $ #           "
};
