/* XPM */
static char *enemymv1740740483[] = {
/* columns rows colors chars-per-pixel */
"32 32 189 2 ",
"   c #6FC0A0",
".  c #E67F48",
"X  c #70C0A0",
"o  c #74C2A4",
"O  c #73C1A2",
"+  c #71C1A1",
"@  c #70C0A1",
"#  c #6CBF9D",
"$  c #6EBF9F",
"%  c #6FC1A1",
"&  c #6BBE9C",
"*  c #7BC4A8",
"=  c #7FC5AA",
"-  c #78C3A5",
";  c #763E20",
":  c #5EBA93",
">  c #304756",
",  c #83C7AD",
"<  c #E8CD78",
"1  c #7C4122",
"2  c #67BD99",
"3  c #63BC96",
"4  c #6FB898",
"5  c #B56034",
"6  c #88C8B0",
"7  c #6EC09F",
"8  c #974F28",
"9  c #8A4926",
"0  c #75BD9E",
"q  c #E57E47",
"w  c #70BE9D",
"e  c #D37240",
"r  c #CA6C3D",
"t  c #22130C",
"y  c #814420",
"u  c #5B301A",
"i  c #5CB891",
"p  c #66502B",
"a  c #3D5C66",
"s  c #E07B46",
"d  c #517D7D",
"f  c #6D5B37",
"g  c #2C1D14",
"h  c #D87643",
"j  c #713B1D",
"k  c #B05B32",
"l  c #D5B153",
"z  c #67361C",
"x  c #6DAD91",
"c  c #324A58",
"v  c #735348",
"b  c #679D86",
"n  c #76A986",
"m  c #DA7946",
"M  c #8D5D3F",
"N  c #B76438",
"B  c #43311D",
"V  c #785B48",
"C  c #9D5934",
"Z  c #8E5027",
"A  c #D7B458",
"S  c #6B9272",
"D  c #5D705A",
"F  c #757E59",
"G  c #74B99B",
"H  c #45676C",
"J  c #69B594",
"K  c #70BB9A",
"L  c #39291A",
"P  c #824A2E",
"I  c #36444E",
"U  c #6C805C",
"Y  c #724628",
"T  c #72B392",
"R  c #664A24",
"E  c #C6A046",
"W  c #415A49",
"Q  c #313D2F",
"!  c #A55A2E",
"~  c #C16739",
"^  c #4CB387",
"/  c #37505C",
"(  c #3F565C",
")  c #589C86",
"_  c #815922",
"`  c #5F8675",
"'  c #4A7174",
"]  c #758A67",
"[  c #485444",
"{  c #5E7F75",
"}  c #75C09E",
"|  c #7C6130",
" . c #6F9A7A",
".. c #5D4237",
"X. c #9E552C",
"o. c #6D7550",
"O. c #608E78",
"+. c #736842",
"@. c #5C5951",
"#. c #6D3F25",
"$. c #C8754B",
"%. c #704C3C",
"&. c #4B2813",
"*. c #BD683A",
"=. c #93562E",
"-. c #6D603A",
";. c #596950",
":. c #4B4A3A",
">. c #7AA480",
",. c #2E2821",
"<. c #AE843C",
"1. c #8A5426",
"2. c #924D2C",
"3. c #573724",
"4. c #B67B5F",
"5. c #6C431E",
"6. c #6AA88E",
"7. c #364E59",
"8. c #727A55",
"9. c #5EB28C",
"0. c #6C987F",
"q. c #4E7679",
"w. c #82C3A9",
"e. c #825630",
"r. c #D47A49",
"t. c #4F6651",
"y. c #D88253",
"u. c #7A734B",
"i. c #916A57",
"p. c #72A382",
"a. c #69704D",
"s. c #453F2F",
"d. c #D7ACA1",
"f. c #4F696A",
"g. c #C9A347",
"h. c #567961",
"j. c #E18453",
"k. c #3B1F12",
"l. c #E18C63",
"z. c #804528",
"x. c #485C5F",
"c. c #755435",
"v. c #5E553A",
"b. c #DDBD63",
"n. c #75AF8C",
"m. c #512D18",
"M. c #653D22",
"N. c #3E474E",
"B. c #E1C36A",
"V. c #A4532C",
"C. c #7A5521",
"Z. c #607669",
"A. c #242D24",
"S. c #796552",
"D. c #57441E",
"F. c #2B362C",
"G. c #B7783A",
"H. c #CC7244",
"J. c #9D7331",
"K. c #8C652D",
"L. c #48AE80",
"P. c #7DAF9D",
"I. c #466B6D",
"U. c #50726E",
"Y. c #7C7A6C",
"T. c #51644F",
"R. c #578A76",
"E. c #98765E",
"W. c #5FAB84",
"Q. c #59A178",
"!. c #48413B",
"~. c #3A4E3E",
"^. c #D6BEC5",
"/. c #BBB2BB",
"(. c #E0997E",
"). c #9C9DA1",
"_. c #C89283",
"`. c #62A67F",
"'. c #BB9641",
"]. c #A0674B",
"[. c #D2AC4E",
"{. c #77815B",
"}. c #434244",
"|. c #CEA7A1",
" X c #876A42",
".X c #7CA585",
"XX c #A87035",
"oX c #756D4C",
"OX c #BE9948",
/* pixels */
"        O = -     X X     O = -               @ * * @ $ 3 2 $   ",
"        o 6 = X   $ 3 2 % o 6 =       % %     O , , + # i 3 2 : ",
"        @ o O X + & ^ Q.n 7 o O     % p.n.%   X o O   $ & # i L.",
"                  $ `.u.u.W.&     w n +.{.T             @ @ 2 i ",
"O             @   w f ! X.a.w % % T c.N Z a.          O = * X   ",
"o - - %           K Q 9 ! +.n n.T .Xp *.z W +         o , = o * ",
"O , w.4 4 K $ 4 4 G Q z.! Y M M M M 5.*.u W 0 4 K w 4 4 G w * 6 ",
"X - ] p p o.n.f f n Q P m =.9 r ~ y 5 m u W ] p +.>.-.p p  .o - ",
"0 U e.8 8 1.-.9 5.>.Q j h 5 X.q h 8 H.r &.W U j Z f Z 8 8 f S % ",
"F e.P v v %.1 V.Y >.:.1 e r 5 q m 5 e ~ z ;.U y V.; %.v v P | S ",
"M.Y @.a a x.V 2.5.n -.y r h e . s e s 5 ; o.U ; =.V x.a a v #.f ",
"o.D f.' d d Z.P #.;.R 9 r . . . . . q N y v.v.; c.{ d d ' U.D ] ",
"K 9.R.H q.d f.%.; t z $.l.. . . . . . l.N &.k.1 %.' d q.I.b } w ",
"# i i { a H c N.#.t 9 |.d.y.. . . . y.^._.u k...> / H a 6.%     ",
"@ $ # { c c > N...t C d.).E.s q q r.Y./.(.j g ..> > c / x -     ",
"o o O ` / 7.> > I t C j.i.V r q s *.@.4.j.; ,.N.> > 7.( P., o - ",
"o , , G 6.` c > I 3.; N r.$.s . q m $.m ! j ..> > ( 0.x 0 o * 6 ",
"+ * - X # 9.) O.( }.g 1 h . . . . . . r u ,.N.H ) ) 4 %   7 - * ",
"    X X   7 2 J ` :.3.u X.h e . s e h 1 u 3.@.b % & 3 #         ",
"    7   X 7 : 3 T R k 2.1 ].4.e H.4.C ; ! 8 oX}   3 : &         ",
"      @ X O % x h.=.~ ! 1. XV z M.S.K.Z N N V O.- + # # # #     ",
"        o 6 = b ,.k 5 1.<.<.R B B C.OXJ.Z ~ 1 F.b w.+ # i 3 # # ",
"        O = 0 Z.B y ; J.B.B.A A A A < l K.1 j t A.G + $ 3 2 : ^ ",
"          %  .L 9 1 y <.b.< < < < < < l XX1 9 z A.J %       : ^ ",
"+         % 0.g 8 k k G.g.b.< < < < A E G.k 8 u F.J % @ o o # & ",
"o O +     %  .g ; k 5 z | [.l l l l E D.y 5 j s.p.w   o 6 = O O ",
"o , =       4 h.L z.2.; B | E g.g.'.D.m.; 9 m.~.}     + * - * 6 ",
"O = * @     o b ,.S.M i.!.L _ _ _ C.&.g g t s.S X           - , ",
"  @ @     7 & x D :.L B [ D 8.F 8.F F ;.t.t.S X   & 2 7     X @ ",
"          $ : : J T.[ [ O.X $ i i & X X X X       3 i #         ",
"          @ & & $ 0 0 0 X @ @ # & $ $ 7       @ + & 2 $         ",
"$       O , * X     % %   O , * X & : 2       + = = +           "
};
