/* XPM */
static char *exit1740220234[] = {
/* columns rows colors chars-per-pixel */
"32 32 96 2 ",
"   c #6FC0A0",
".  c black",
"X  c #70C1A1",
"o  c #76C3A5",
"O  c #73C1A3",
"+  c #7CC4A9",
"@  c #6DBF9E",
"#  c #6BBE9C",
"$  c #040303",
"%  c #70C0A1",
"&  c #090805",
"*  c #70C0A0",
"=  c #322D1E",
"-  c #83C6AB",
";  c #65BC98",
":  c #A48845",
">  c #242013",
",  c #5FBA93",
"<  c #978045",
"1  c #86C8AF",
"2  c #0C0B0A",
"3  c #6FBF9F",
"4  c #9D8447",
"5  c #282315",
"6  c #5CB791",
"7  c #759C7D",
"8  c #3C3421",
"9  c #BD9F4B",
"0  c #695A33",
"q  c #72B190",
"w  c #71A585",
"e  c #73BE9D",
"r  c #726C4C",
"t  c #B69949",
"y  c #42381A",
"u  c #71BB9B",
"i  c #333630",
"p  c #70AB8C",
"a  c #282A23",
"s  c #72876B",
"d  c #17140D",
"f  c #1E1B13",
"g  c #62532E",
"h  c #4EB389",
"j  c #638E74",
"k  c #3E4538",
"l  c #6F967A",
"z  c #CDBD6E",
"x  c #C1A34C",
"c  c #48422D",
"v  c #110F0B",
"b  c #90793F",
"n  c #C3A955",
"m  c #74B797",
"M  c #758F6E",
"N  c #69A185",
"B  c #AF9348",
"V  c #514525",
"C  c #483E23",
"Z  c #AA8F49",
"A  c #658168",
"S  c #59735F",
"D  c #5C5844",
"F  c #526B55",
"G  c #4F594B",
"H  c #64634D",
"J  c #61785E",
"K  c #AEA56C",
"L  c #504B31",
"P  c #867139",
"I  c #706038",
"U  c #DCCF7F",
"Y  c #6CB592",
"T  c #777752",
"R  c #979060",
"E  c #87744D",
"W  c #8E8254",
"Q  c #897B50",
"!  c #756538",
"~  c #5B4C24",
"^  c #C6B56E",
"/  c #8BC9B1",
"(  c #C8D38B",
")  c #8AB388",
"_  c #B5B173",
"`  c #A99A5B",
"'  c #A68D47",
"]  c #D1CA7F",
"[  c #6E663D",
"{  c #43AF81",
"}  c #B9C586",
"|  c #9BB884",
" . c #82BF9B",
".. c #DAC671",
"X. c #BBAD66",
"o. c #E2D380",
/* pixels */
"        O + o             O + o               X + + % @ ; ;     ",
"        O 1 + *   @ ; ;   o 1 +               O - - X @ 6 , ; , ",
"        % o O     # h h @ * o O 3             * O O * @ # @ 6 { ",
"                  @ , 6 ) ( ( } q   % *                 X % ; 6 ",
"O                   e ) _ .._ | e o - o               O - + *   ",
"o o o %           X  .] z n M 6   o 1 + o + X         O - + o + ",
"O 1 - X           X - z ` r j 6   % O O - 1 O         % X O + / ",
"% o o %     @ @ X m w 9 < D A w m X     o o *       @ 3 #   O o ",
"            ; , p j H E ' B r S s 7 q   X X   u Y q p 7 p *     ",
"      3     Y j G i = < t x R T i k F 7 p w l s R K K R l       ",
"@       e m s k & 2 > 9 9 Z z X.> & v k H H r Q ^ o.U K l 3     ",
"# # #   u j a 2 . . > 9 P y < n ` L . 2 f f 0 ^ z n W s q X     ",
"; h h u j i $ . . . 5 x 0 & ~ < z Q 8 d $ $ 0 U [ = G N 3       ",
"# 6 , Y k $ . . $ . > x 0 . & 5 E K z 8 $ $ r U L $ D w u 3     ",
"X 3 @ w a . . . . . > t b V d 2 C W ^ g = $ [ U c $ = s + o     ",
"o o o N > . . . . . 5 : x 9 C & . V : 9 Z = r ] c . 2 J 1 - O o ",
"O 1 1 N > . . . . . = : < 4 ' ! 2 d = b B r E n y . v J e O + / ",
"X + + w a . . . . . 5 : V = B B y d $ ~ P 4 4 9 8 . v J u   o + ",
"    X w = . . . . . 5 : V & ~ t x g $ & f b Z t = . & F e       ",
"    X M 8 . . . $ $ 5 : V $ > g t < 0 > 2 c 4 t y . $ F 3       ",
"      7 8 . . . . . f < V & $ f b t x C d 2 g 9 y . 2 J # @     ",
"    X p 8 . . . . . f 4 b I > & 5 0 4 < P a 0 n y . 2 S 6 ; @ @ ",
"    X q c 2 $ . . . f b 4 4 C d . = 0 : t ! I n y . & F ; ; , h ",
"    X u A i $ . . . > : 0 : : I 2 & v g 4 : < 9 y . & S *   , h ",
"X       q S i d . . 5 : 8 g < 4 c f . 5 g 4 Z B 8 $ a A e O @ # ",
"o O X   X q j k v & 5 : > & L < 4 c 2 $ 2 = < Z 8 v G p 1 - O O ",
"O - - %     u s D = = : 5 . v = < b ! > $ 2 I : L G l u + o + 1 ",
"X + + %       u 7 r D T k a a = r W Q C a i H T A 7 m 3 *   o - ",
"  % %       # ; @ m q p p N N M M 7 l l s M 7 7 u # ; 3     * % ",
"          @ , ,   X X X X X   , 6 # * X * @ e 3   , 6 @         ",
"        * X @ #           * % # #   @           X @ ; @         ",
"#       O - + *           O - + * # , #       X + + X           "
};
