/* XPM */
static char *floor1740220234[] = {
/* columns rows colors chars-per-pixel */
"32 32 6 1 ",
"  c #6FC0A0",
". c #6BBE9C",
"X c #78C3A6",
"o c #5FBA94",
"O c #83C7AD",
"+ c #50B389",
/* pixels */
"     OX       OX        XX .o.  ",
"    XOO   o. XOX        OO .oo.o",
"     X   .++.  X        X   ..o+",
"         .oo.o.               oo",
"            .o.  XOX        OX  ",
"XXX       XX .oo XOXXX      OOXX",
" OO       OO .++    OO        XO",
" XX       XX .o..   XX    .    X",
"      oo       oo        oo.    ",
"      oo       oo        oo.    ",
"     X        X  ...    XX      ",
"... XOO      XOO .o...  OO      ",
".++. XX       XX ...++. XX      ",
".oo.o.              oo.o.       ",
"  ..o.            XX  .o.   XX  ",
"XXX .o.   XX     XOXXX .o. XOO X",
"XOO .++   OO      XXOO .++. XXXO",
" XX .oo   XX        XX .oo.   XX",
"      oo       oo        .o.    ",
"      oo.     .oo        oo.    ",
"       .      X .         . ..  ",
"    XOO   .. XOX        OO .oo..",
"     OX  .+o  OX        XX .o.o+",
"         .++.o.              .o+",
"          ...o.   X         XX .",
"X           .... XOX       XOO  ",
"XOO       OO .+o  XXOO      XXXO",
" OX       OX .+o    XO        XO",
"      ..      ...        ...    ",
"      oo.      oo        oo.    ",
"      ..       .. .      ..     ",
".    OX       OX .o.    OO      "
};
