/* XPM */
static char *playerback1740740483[] = {
/* columns rows colors chars-per-pixel */
"32 32 172 2 ",
"   c #6FC0A0",
".  c #70C0A1",
"X  c #E57152",
"o  c #75C2A4",
"O  c #73C1A2",
"+  c #70C1A1",
"@  c #6CBF9E",
"#  c #7BC4A8",
"$  c #6ABE9C",
"%  c #70C2A1",
"&  c #6EC09F",
"*  c #AF433E",
"=  c #78C3A6",
"-  c #6FBF9F",
";  c #7FC5AA",
":  c #DF6E50",
">  c #C35746",
",  c #AC423D",
"<  c #5CB992",
"1  c #716259",
"2  c #B3453F",
"3  c #8F4437",
"4  c #88C9B0",
"5  c #67BD9A",
"6  c #130C0B",
"7  c #83C6AC",
"8  c #85C7AE",
"9  c #5FBA94",
"0  c #63BC97",
"q  c #0C0708",
"w  c #613C38",
"e  c #552120",
"r  c #76BDA0",
"t  c #76C5A6",
"y  c #563632",
"u  c #6AB295",
"i  c #3E2524",
"p  c #66302C",
"a  c #1B1111",
"s  c #F3DA6E",
"d  c #4AB286",
"f  c #743633",
"g  c #8A9F93",
"h  c #923A36",
"j  c #7ABA9F",
"k  c #704543",
"l  c #422924",
"z  c #805A44",
"x  c #6F423F",
"c  c gray16",
"v  c #8D6447",
"b  c #1A1A1C",
"n  c #59B890",
"m  c #65BC99",
"M  c #853833",
"N  c #A23F3A",
"B  c #6A2D2A",
"V  c #3A1816",
"C  c #78312E",
"Z  c #6D3C35",
"A  c #5D8876",
"S  c #3E4744",
"D  c #2D1E1E",
"F  c #7CAF99",
"G  c #7E5141",
"H  c #5D2A27",
"J  c #4D3329",
"K  c #BF6349",
"L  c #EBCB69",
"P  c #BC4E42",
"I  c #CB5B48",
"U  c #7A6862",
"Y  c #9B3D38",
"T  c #73B599",
"R  c #8F403D",
"E  c #697D71",
"W  c #947473",
"Q  c #7FCAAC",
"!  c #68A88F",
"~  c #864947",
"^  c #61533C",
"/  c #1F1C37",
"(  c #5A957E",
")  c #4E4B46",
"_  c #6B9E89",
"`  c #78C6A8",
"'  c #4B4371",
"]  c #755450",
"[  c #473857",
"{  c #3E3B71",
"}  c #906752",
"|  c #30305D",
" . c #AD4F43",
".. c #D4B85E",
"X. c #262547",
"o. c #2E2E38",
"O. c #EACE6A",
"+. c #AF9349",
"@. c #6C7163",
"#. c #53B58C",
"$. c #D8684E",
"%. c #69B997",
"&. c #D4644D",
"*. c #5E8C70",
"=. c #738879",
"-. c #72C4A4",
";. c #895E59",
":. c #89A797",
">. c #8CC2AB",
",. c #5C312F",
"<. c #251613",
"1. c #694D31",
"2. c #7CC1A6",
"3. c #76A48F",
"4. c #A97B5A",
"5. c #A3433D",
"6. c #3B5D4F",
"7. c #50615D",
"8. c #679A86",
"9. c #575F56",
"0. c #383F41",
"q. c #6B3E3C",
"w. c #293431",
"e. c #808F86",
"r. c #567468",
"t. c #945146",
"y. c #A47A46",
"u. c #566488",
"i. c #554D69",
"p. c #936D4C",
"a. c #403728",
"s. c #A88D45",
"d. c #B86C48",
"f. c #93694A",
"g. c #896240",
"h. c #BFA154",
"j. c #A58B4D",
"k. c #A7814A",
"l. c #EBD16A",
"z. c #944444",
"x. c #DDC063",
"c. c #76C1A4",
"v. c #A24B3D",
"b. c #8C746D",
"n. c #81C0A8",
"m. c #414C49",
"M. c #4B826D",
"N. c #614354",
"B. c #A87D73",
"V. c #9B3D39",
"C. c #83B29F",
"Z. c #6C3F57",
"A. c #6B89A2",
"S. c #5C3836",
"D. c #4A534D",
"F. c #803F52",
"G. c #546C62",
"H. c #617B90",
"J. c #704C3B",
"K. c #445157",
"L. c #4F7B69",
"P. c #5B707E",
"I. c #C3A954",
"U. c #847E64",
"Y. c #927F52",
"T. c #47344D",
"R. c #A35A40",
"E. c #8D6A6D",
"W. c #9D6A4B",
"Q. c #B88877",
"!. c #B59C4B",
"~. c #9C7170",
/* pixels */
"        O ; =             O ; =               + # # . @ 0 m     ",
"        o 8 ; .   @ 0 m & o 4 #           .   O 8 7 + $ < 0 5 9 ",
"        . o O     $ d #.- - c.= O - - - - . + . o O     $ @ n d ",
"                  . _ @.@.1 1 1 1 1 1 1 1 E O .         . . 5 < ",
"O               r g ;.M 3 3 3 3 3 3 3 3 M ~ g r +     O ; # . . ",
"o = = .       + T ] R P $.: : : : : : : I 5.k F +     O 8 ; o # ",
"O 8 7 +       % T k v.$.X X X X X X X X : > f g -.    . O + # 4 ",
". o o .     & u =.~ > X X X X X X X X X X &.R b.3.- @       O = ",
"          & 0 *.B N I : X X X X X X X X : &.2 C U %.9 @         ",
"          - 0 *.p N 2 P : X X X X X X X I 2 * C U %.9 @         ",
"        + = t A V Y 2 2 > > > > > > > > P , , e 9.r -           ",
"$ 5 $   o 4 Q M.q M , * * * , 2 * * , * * , Y V m.n.+           ",
"$ d #.@ . # 4 A 6 H h , * * , 5.N , 2 * , N p <.S 2.%           ",
"@ n < 5 9 r E ^ 1.Z f M , 2 h V V B , 2 h f Z 1.^ 6.! %         ",
"+ - & m < j 0.l 4.w ,.f h V.C a 6 e h Y f ,.y v z 6 ( -.# =     ",
"o o o . $ j S J 4.<.i q.p p p H H p p p Z y 6 z } c 8.t 4 ; O o ",
"o 8 7 + m u U l D q i x x z g.x q.G v k x y q a ) :.r + o o # 4 ",
"+ # = . $ j W w y / D i l J.z k x G z J i i D ) =.$ &       o # ",
"        & >.W ;.B.' / 6 6 l w w w w y a q a w g #   9 @ .       ",
"        & >.W N.' { [ S.y D 6 6 6 6 a J T.X.b e.` $ < @ .       ",
"        . 7 :.7./ | Z.t.f.Z e e e e H g.] [ X.K.A # & @ @ @     ",
"        o 8 Q ( w.[ F. .y.d.K K K K d.k.v k { o.) 3.- @ < 0 @ @ ",
"        O ; = + T ] R 5.G h.O.L L L x.v z.z.' E.v w.! % 0 5 < d ",
"          .   + u a.C  .y...s s s s O.j.R. .~.Q.} b _ -.  & < d ",
"+             + u b e t.+...L s s l.x.h.W.~ } f.z 7.u % o o & $ ",
"o O O         + u c X.i.j.+.I.O.l...!.+.1 | b a D.j + o 4 ; O O ",
"o 7 ; +       . - _ u.{ i.Y.s.p.p.k.s.a.a o.8.( ! .   + # = # 4 ",
"O ; # .           ` P.| u.e.U.l i J ^ 9.6.L.t -.%           = 7 ",
"  . .       5 5 & + r.0.H.A.P.c c c S F Q t .     $ 5 -     . . ",
"          - 9 < @   2.g o.b S F F C.j O +       & 9 n $         ",
"        . + @ $     o r E G.A & $ & @ &         +   $ &         ",
"@       O 7 # .         + = 8 # . $ < $       + ; ; +           "
};
