/* XPM */
static char *playerright1740740483[] = {
/* columns rows colors chars-per-pixel */
"32 32 168 2 ",
"   c #6FC0A0",
".  c #70C0A1",
"X  c #73C1A2",
"o  c #E37152",
"O  c #70C1A1",
"+  c #6EC09F",
"@  c #6ABE9B",
"#  c #75C2A4",
"$  c #6EBF9E",
"%  c #83C7AD",
"&  c #66BC99",
"*  c #6BBE9D",
"=  c #AE433E",
"-  c #69BD9A",
";  c #72C3A2",
":  c #7DC5A9",
">  c #7AC4A7",
",  c #7B4844",
"<  c #78C3A6",
"1  c #B1453F",
"2  c #63BB97",
"3  c #73AE96",
"4  c #5BB891",
"5  c #6FBFA0",
"6  c #5FBA94",
"7  c #76BEA1",
"8  c #6A312F",
"9  c #96A698",
"0  c #56B68E",
"q  c #B55742",
"w  c #D1614B",
"e  c #7BB49C",
"r  c #6CB295",
"t  c #568773",
"y  c #9B3D39",
"u  c #895B52",
"i  c #823633",
"p  c #404747",
"a  c #0B090A",
"s  c #171319",
"d  c #85574A",
"f  c #C79376",
"g  c #80C6AB",
"h  c #D6644D",
"j  c #E16E51",
"k  c #AA433D",
"l  c #42514C",
"z  c #669984",
"x  c #9F3F3A",
"c  c #72BB9F",
"v  c #773330",
"b  c #291414",
"n  c #888E85",
"m  c #652F2D",
"M  c #663C3A",
"N  c #201A1C",
"B  c #6B413C",
"V  c #87634D",
"C  c #B6866C",
"Z  c #AB7967",
"A  c #2A2D50",
"S  c #8AA594",
"D  c #7CB99F",
"F  c #95988E",
"G  c #B95345",
"H  c #B04A40",
"J  c #76A090",
"K  c #82BFA5",
"L  c #52514A",
"P  c #759888",
"I  c #2F1D1E",
"U  c #785E66",
"Y  c #764A49",
"T  c #543338",
"R  c #547669",
"E  c #382520",
"W  c #93685D",
"Q  c #4A3E2A",
"!  c #A56E5D",
"~  c #936355",
"^  c #251D30",
"/  c #6C3937",
"(  c #604336",
")  c #323635",
"_  c #BF8C71",
"`  c #8D8A93",
"'  c #262C39",
"]  c #C18E71",
"[  c #8BAF9C",
"{  c #934640",
"}  c #C35445",
"|  c #826861",
" . c #88635F",
".. c #CE634E",
"X. c #9E4A45",
"o. c #304A41",
"O. c #8B7875",
"+. c #978F84",
"@. c #525F5D",
"#. c #42403F",
"$. c #823E42",
"%. c #CB5B48",
"&. c #854742",
"*. c #8EA898",
"=. c #9F9A92",
"-. c #381818",
";. c #678C7E",
":. c #706A54",
">. c #7A8A80",
",. c #686E6C",
"<. c #4A666E",
"1. c #B08371",
"2. c #8E5652",
"3. c #9792B1",
"4. c #B19FB3",
"5. c #A85A58",
"6. c #343139",
"7. c #B0717B",
"8. c #B27E8A",
"9. c #775440",
"0. c #544972",
"q. c #BCA6AE",
"w. c #363262",
"e. c #D09C7D",
"r. c #C4A65E",
"t. c #4A3230",
"y. c #704241",
"u. c #C5B1BA",
"i. c #B08D9C",
"p. c #B89A56",
"a. c #D6A889",
"s. c #E5B88F",
"d. c #695361",
"f. c #886E43",
"g. c #D3A180",
"h. c #CF9879",
"j. c #48B084",
"k. c #86AA97",
"l. c #90897F",
"z. c #913935",
"x. c #A4776D",
"c. c #C86C5F",
"v. c #5C4831",
"b. c #9B7F8F",
"n. c #282845",
"m. c #4E4E5B",
"M. c #5B4763",
"N. c #412724",
"B. c #AF4E4D",
"V. c #DEA8A1",
"C. c #7F867C",
"Z. c #7A4F45",
"A. c #D2B7C2",
"S. c #808095",
"D. c #C8AE5A",
"F. c #778F82",
"G. c #9C8548",
"H. c #5A615C",
"J. c #7F3C39",
"K. c #958EA3",
"L. c #AF6466",
"P. c #D3C8D8",
"I. c #CA9CA3",
"U. c #DCAEAF",
"Y. c #B3916D",
"T. c #746880",
"R. c #5A4860",
"E. c #78697E",
/* pixels */
"& 6 -   < % >               . < % #   & 0 &     X g : O         ",
"$ * $   O X O                 O X * * 4 j.6       X X .         ",
". X .         O # ; ; # < # ; O * 2 - @ 2 @                     ",
"< g <       O 7 [ 9 9 9 9 9 9 9 S S S D O         +         . X ",
"> g <       . [  ., , , , , , , , , Y F : < X . + +     X > > # ",
". X O + O . k.| { k q q q q G G q q X.u n K < O   +     X % % X ",
"    + +   7 F $.H h o o o o o o o j %.x 2.n e O   +     . # #   ",
"    + & 2 3 l.{ ..o o o o o o o o o j c.5.Y >.e & * +           ",
"    $ 2 r O.&.H h j o o o o o o o o o V.q.y.Y C.r -             ",
"      $ e | i 1 } h o o o o o o o j ..U.u., O.n R 3 < .     5 + ",
"      O e  .i k = } h w w w w w w %.G I.q.2.u.` ) J % . 5 * * * ",
"    . O e U v x = 1 1 1 1 1 1 1 = 1 H 8.i.L.A.` ) z > . * 0 0 @ ",
"  + . O 3 L -.v x = = = = = = = = k 1 5.7.4.P.` ) z * & - 0 0 * ",
"X # # O 3 p b 8 i i z.k = = = = = B.7.8.i.4.S.,.t r 2 4 - * * . ",
": % > X 3 p I M 8 m v y y y y y y X.b.3.3.K.@.R c O - - $ X . # ",
"< : # X r l I M B y.B / 8 8 8 8 m m M M.0.U *.# $ 6 6 * X g : # ",
"    . $ - 3 ,.E M ~ 1.] u d ! ! B N.~ x.W u *.# $ 0 4 * X g g X ",
"    5 * @ 7 3 H.t.u g.s.C Z f e.V ( _ C Z +.D + - & *   . X O   ",
"    $ 2 6 + c F.Q 9.] g.h.f h.a.C W f 1.+.K X & 4 &             ",
"  + + - - 7 P L f.f.d u Z _ ] f _ Z W =.K O . * & *             ",
"- 2 @ + c ;.:.G.D.p.V R.d.d.( d ~ u , =.X .     O < < .         ",
"& 4 & O 3 l Q p.r.r.Y.E.0.A ^ / &.J./ F - * 5   # % g O         ",
"@ @ $ . 3 p E 9.d C s.a.T.w.w.$.x i 8 n 4 & .   . # # .         ",
"+ . . O r l Q V Z.! e.f U A ^ v 8 -.I >.& @                     ",
"# : #   $ z :.v.B d V ( 6.A p t.b a ^ m.;.c 5                 O ",
"> % < . O 7 P #.T T E a a ' <.' s b n.s p e             O # # # ",
"X < X . X O 7 J #.N N s s N ' A T m s a L D O     +     X % g X ",
"        5   ; 7 z t t t t t R 6.N b a @.P 7 O + + +     O > > X ",
"    $ - & $     ; ; ; ; ; ; r <.o.o.l J <     * 2 *         .   ",
"    $ 6 4 @           O X $ 6 2 5 . 5 .       & 4 & +           ",
"    $ * * X .         $ $ $ * $ X .           * * . .         + ",
"      . < % < $       & 6 @   > g #             X g : X       * "
};
