/* XPM */
static char *player1740220234[] = {
/* columns rows colors chars-per-pixel */
"32 32 212 2 ",
"   c #6FC0A0",
".  c #70C0A1",
"X  c #73C1A2",
"o  c #71C1A1",
"O  c #6DBF9E",
"+  c #75C2A4",
"@  c #6ABE9C",
"#  c #7BC4A8",
"$  c #6EC09F",
"%  c #63BC97",
"&  c #67BD9A",
"*  c #85C8AF",
"=  c #71C0A1",
"-  c #78C3A6",
";  c #7EC5AA",
":  c #82C6AC",
">  c #5CB992",
",  c #77C2A5",
"<  c #72C4A4",
"1  c #E37053",
"2  c #80C5AB",
"3  c #5FBB94",
"4  c #837A72",
"5  c #72C2A3",
"6  c #884137",
"7  c #121615",
"8  c #9F6E5D",
"9  c #6FBF9F",
"0  c #DE6D51",
"q  c #E67251",
"w  c #251616",
"e  c #B0433E",
"r  c #9393B9",
"t  c #271E19",
"y  c #57B78E",
"u  c #75C5A6",
"i  c #74B197",
"p  c #0F0B11",
"a  c #BC876F",
"s  c #593D34",
"d  c #B24841",
"f  c #C45445",
"g  c #E4B68F",
"h  c #412526",
"j  c #B38167",
"k  c #4AB286",
"l  c #75BDA0",
"z  c #9C5A88",
"x  c #6BB397",
"c  c #6E2D29",
"v  c #6CBB9B",
"b  c #7B3533",
"n  c #6B4C40",
"m  c #71433E",
"M  c #C38E73",
"N  c #A8423C",
"B  c #AE6061",
"V  c #C89274",
"C  c #5A537A",
"Z  c #D7B9C2",
"A  c #9F4441",
"S  c #3B3B3C",
"D  c #873633",
"F  c #383664",
"G  c #C95F4A",
"H  c #B54C45",
"J  c #37231F",
"K  c #8CC7B1",
"L  c #79BA9F",
"P  c #759C85",
"I  c #7D8C7E",
"U  c #8A7A6D",
"Y  c #D7684D",
"T  c #BB5243",
"R  c #DD6B4F",
"E  c #5E6D62",
"W  c #6AAA91",
"Q  c #6F4CAC",
"!  c #88559B",
"~  c #81524B",
"^  c #58927B",
"/  c #492D26",
"(  c #926756",
")  c #D0614B",
"_  c #4C3030",
"`  c #823B37",
"'  c #8B5749",
"]  c #AD7A62",
"[  c #825E4B",
"{  c #292B47",
"}  c #963E37",
"|  c #65A88E",
" . c #364947",
".. c #B65E5D",
"X. c #D9AC89",
"o. c #323059",
"O. c #905C54",
"+. c #3B322C",
"@. c #1A1A2D",
"#. c #371A17",
"$. c #243730",
"%. c #434677",
"&. c #622A27",
"*. c #202530",
"=. c #546485",
"-. c #020205",
";. c #62B08F",
":. c #80786F",
">. c #7C5E58",
",. c #72B69B",
"<. c #8C938A",
"1. c #518D75",
"2. c #744DA4",
"3. c #6F806E",
"4. c #5745B9",
"5. c #77564C",
"6. c #757C6E",
"7. c #68B997",
"8. c #783D42",
"9. c #A95F7F",
"0. c #5F9F81",
"q. c #84BFA8",
"w. c #4440CE",
"e. c #322923",
"r. c #683733",
"t. c #775D65",
"y. c #897461",
"u. c #303060",
"i. c #6D533B",
"p. c #936256",
"a. c #46504C",
"s. c #C3686D",
"d. c #D4A07E",
"f. c #5B4861",
"g. c #47433F",
"h. c #988186",
"j. c #CF9778",
"k. c #AC8473",
"l. c #B1696E",
"z. c #93849C",
"x. c #AC97AA",
"c. c #4F7469",
"v. c #9595B8",
"b. c #649C85",
"n. c #D7D3E4",
"m. c #B28086",
"M. c #171F1B",
"N. c #6BA48F",
"B. c #523E59",
"V. c #3F6759",
"C. c #424765",
"Z. c #D5CDDC",
"A. c #B9939E",
"S. c #495F6E",
"D. c #121125",
"F. c #BFBBD3",
"G. c #5B5B68",
"H. c #7EAA97",
"J. c #8AA28E",
"K. c #6F6C60",
"L. c #834543",
"P. c #52A884",
"I. c #D06958",
"U. c #7EA993",
"Y. c #708D7F",
"T. c #8E807A",
"R. c #6C5977",
"E. c #786660",
"W. c #45354F",
"Q. c #886C77",
"!. c #AB7C64",
"~. c #68594C",
"^. c #8A3D3A",
"/. c #B2A3B8",
"(. c #8A6743",
"). c #7C998D",
"_. c #5F8E81",
"`. c #CD969A",
"'. c #CBA586",
"]. c #B3846A",
"[. c #545046",
"{. c #271C28",
"}. c #9D8CA4",
"|. c #EAC0BD",
" X c #837BA0",
".X c #A8889C",
"XX c #506659",
"oX c #A36088",
"OX c #514872",
"+X c #DC978E",
"@X c #A85859",
"#X c #6E5161",
"$X c #CB9978",
"%X c #86748A",
"&X c #D9C2CE",
"*X c #E8B9B5",
"=X c #CEB7C4",
"-X c #D4C4D1",
";X c #D37A6C",
":X c #EDC09E",
">X c #9D6A59",
",X c #6C86A7",
"<X c #7392B4",
"1X c #5C7099",
"2X c #834741",
"3X c #7E493C",
"4X c #594451",
"5X c #BC7476",
"6X c #CF8D82",
"7X c #D3D3E6",
"8X c #5B3639",
"9X c #D0ABAD",
/* pixels */
"        X ; -             X ; -               o # # . $ % & = . ",
"        + * ; .   $ % % $ + * ; o .           X * : . O > % & 3 ",
"        . + X     O y y   X - - , X X = X o   . + X   $ @ O y k ",
"                o o I :.4 4 4 4 4 4 4 :.U I l 5         . . & > ",
"X               l J.~ b 6 6 6 6 ` 6 6 6 ` L.<.l o     X 2 # .   ",
"+ - - .       + i m A T Y 0 I.2.4.z R 0 G N 8.3.5     X * ; , # ",
"X * : o     . u i r.T R 1 1 z z 2.w.9.q 0 G b K.<     . X o # K ",
". + + .     9 U.T.^.) q 1 0 4.! Q Q ! q q Y } >.P v $ $     X - ",
"          $ 7.E.c e ) R 1 1 z w.Q 9.s.q 0 Y H D s ;.3 O         ",
"          $ 7.a.#.N d f 0 1 1 oX! s.q 1 ) d e c M.;.3 O         ",
"        = # , a.w N e d f f ;X*X|.+Xf f T e e c 7 x o =         ",
"  @ @   o q.).[./ } B @Xd ..m.Z Z `.B d H B A c +.Y.,.o         ",
"& k y O + b.t i.' r.z..XB x.A.....m./.l.l.}.m m (.e.^ <         ",
"@ y > % % ^ 7 [ ( w C. X=Xn.Z.Z Z -Xn.&Xx.C {.s ] t 1.<         ",
".     @ 3 W E ~.s h #X%Xr r r r v.r r v.z.t._ / n E W 5 # -     ",
"+ + + . $ v i g.w ~ a k.C F F C C %.u.OXQ.a p._ 7 x + X * 2 X , ",
"+ * : o O 0.5.w J a V d.'.+.g.X.g y.w k.X.j.V 5.7 P.$ o + + # K ",
"o # # 5 P U 8 B.W.p.a j.$Xn [ g :Xa s ].d.M 8 y.1.> O       + # ",
"      < 3.O.M R.F h n [ 8 >Xj X.g V 8 8 ( n / E u @ % 9         ",
"    . 5 I ( !.f.{ p p #.m 8 j j j j ] ' _ p p  .i % % O         ",
"      o K <.e.7 @.o.b D &.J t t t t J ` 8.o.u.{ S x O 9 @ O .   ",
"      . + q.N.0._.f.A N D &.8XG.G.4X&.` O.h.h.t.S L X O > % O @ ",
"        X : ; u i s b } e H 5XF.F.A.H 2X8 g g M 5.L . O % & > k ",
"          . o 5 | 7 p h A G 6XZ.7X9XG 3XO.M V ] >.L o   9   > k ",
"o             5 | 7 S.=.B.h J S S +.#.w h ~ ' U H.= X . , + $ @ ",
"+ X X       . 5 x V.S.=.=.C.{ D.-.-.-. .XX6.6.P o     X * : X X ",
"+ : 2 o       . o # $.*.,X<X1XF *.M.$.W * * < o .     o # - # * ",
"X ; # .         . X $.@.%.%.o.*.N.l v = # : X               - : ",
"  . .       & & 9 = | c.@.D. .b.v X + o = o       @ & $     . . ",
"          O 3 > O   < i c.V.^ & 3 O =           9 % > O         ",
"        . = @ @       o < u u O @ $ O           = O & O         ",
"O       X : # .           X : # . @ 3 & .     . ; ; o           "
};
