/* XPM */
static char *playerleftmv1740740483[] = {
/* columns rows colors chars-per-pixel */
"32 32 171 2 ",
"   c #6FC0A0",
".  c #73C1A2",
"X  c #E57152",
"o  c #70C0A0",
"O  c #71C1A1",
"+  c #70C0A1",
"@  c #AF433E",
"#  c #69BE9B",
"$  c #7CC4A8",
"%  c #76C2A4",
"&  c #6BBF9C",
"*  c #66BD99",
"=  c #7FC5AA",
"-  c #78C3A6",
";  c #74C2A3",
":  c #6DBF9E",
">  c #71C4A3",
",  c #B0433E",
"<  c #5EBA94",
"1  c #77776B",
"2  c #62BC96",
"3  c #6EC09F",
"4  c #6EC1A0",
"5  c #843D35",
"6  c #9B3D39",
"7  c #88C8B0",
"8  c #84C7AD",
"9  c #DA6B4F",
"0  c #CC5C49",
"q  c #5AB991",
"w  c #3B3A72",
"e  c #81C7AC",
"r  c #4AB286",
"t  c #B24940",
"y  c #AE7C66",
"u  c #8F6258",
"i  c #6A3C3A",
"p  c #C45546",
"a  c #7BAF99",
"s  c #76C5A6",
"d  c #48685B",
"f  c #68302E",
"g  c #1E1B1D",
"h  c #050204",
"j  c #A26F5E",
"k  c #DCAC88",
"l  c #734846",
"z  c #242549",
"x  c #754D44",
"c  c #5F8374",
"v  c #8F6C6A",
"b  c #743634",
"n  c #D3644C",
"m  c #335B4B",
"M  c #201412",
"N  c #622F2D",
"B  c #729B8A",
"V  c #6FB699",
"C  c #6B3431",
"Z  c #CE9677",
"A  c #70413F",
"S  c #362A21",
"D  c #2B242C",
"F  c #C89073",
"G  c #2A2A2E",
"H  c #748475",
"J  c #A53F3B",
"K  c #7C3834",
"L  c #8D403A",
"P  c #161012",
"I  c #4F6E62",
"U  c #6BB395",
"Y  c #785B59",
"T  c #7CB59F",
"R  c #813633",
"E  c #6EA18D",
"W  c #70BEA0",
"Q  c #AE4E49",
"!  c #80A994",
"~  c #699986",
"^  c #6AAB8F",
"/  c #637266",
"(  c #94777D",
")  c #412624",
"_  c #5D3336",
"`  c #2B2C59",
"'  c #E2B48E",
"]  c #A67461",
"[  c #924242",
"{  c #8C6446",
"}  c #A0844B",
"|  c #CDC4D1",
" . c #E5CA67",
".. c #9A95B2",
"X. c #7A8A79",
"o. c #E06D50",
"O. c #90B2A3",
"+. c #55B68D",
"@. c #E16E51",
"#. c #5D3735",
"$. c #844648",
"%. c #695042",
"&. c #383736",
"*. c #5F3B36",
"=. c #778780",
"-. c #D29C7B",
";. c #917A75",
":. c #4E7A67",
">. c #303D4E",
",. c #48534F",
"<. c #444038",
"1. c #394547",
"2. c #88584F",
"3. c #5B4259",
"4. c #DAA7A8",
"5. c #495385",
"6. c #4C322D",
"7. c #D2A582",
"8. c #B3856D",
"9. c #B16F74",
"0. c #524B2B",
"q. c #7FB79E",
"w. c #4A395F",
"e. c #83693C",
"r. c #9D4D48",
"t. c #795343",
"y. c #BB876D",
"u. c #95899C",
"i. c #B68F9A",
"p. c #A3684D",
"a. c #825B44",
"s. c #BEA455",
"d. c #8D7241",
"f. c #ADA0AE",
"g. c #B1818F",
"h. c #AE5E62",
"j. c #B4939F",
"k. c #6A666E",
"l. c #9B7D7C",
"z. c #70BA9C",
"x. c #5D6863",
"c. c #423F50",
"v. c #D4786A",
"b. c #92BDA8",
"n. c #3D524E",
"m. c #D29DA1",
"M. c #D29D7D",
"N. c #9B9084",
"B. c #7494B0",
"V. c #99A59B",
"C. c #7B96B2",
"Z. c #56526C",
"A. c #C59376",
"S. c #8F4F53",
"D. c #48436A",
"F. c #957E4D",
"G. c #5F7C73",
"H. c #606E96",
"J. c #B7945A",
"K. c #C2A856",
"L. c #B99F4E",
"P. c #72653A",
"I. c #819788",
"U. c #514871",
"Y. c #8B726C",
"T. c #4C5F53",
"R. c #B7B8C2",
"E. c #B7B7C1",
"W. c #C0B2C3",
"Q. c #B0AECB",
"!. c #AFB5CA",
/* pixels */
"        . = -     + o     . = -               O $ $ + : 2 *     ",
"        ; 7 = o   : 2 * : ; 7 $             o . 8 e O & q 2 * < ",
"        + % .     # r +.& : . . . + + + o o o o ; . + 3 # : q r ",
"                + 4 ^ 1 1 1 1 1 1 1 1 1 1 1 ! s .       + + * q ",
".             3 . O.;.K K 5 5 5 5 5 5 5 5 K l.O.. o   . = $ o   ",
"% - - +     3 - b.u L t n 9 9 9 9 9 9 9 n t L Y a 4   . 8 = % $ ",
". 8 8 O     s V.v [ t n @.X X X X X X X X n L l a >   o . O $ 7 ",
"+ % % o   . ! v f 9.v.X X X X X X X X X X X Q $.X.a 3       . - ",
"        W a u C i | 4.@.X X X X X X X X X o.p J b H * &         ",
"      O ~ ,.f.( i | m.p 9 X X X X X X X o.p t J b H 2 &         ",
"      O c G E.j.[ W.i.t p 0 0 0 0 0 0 0 p t , J b X.4 3         ",
"3 # # O c G R.4.h.j.9., , , @ @ @ @ @ , , @ @ 6 f H ;           ",
"# r +.4 c G !.| f.h.Q , @ @ @ @ @ @ @ @ @ @ 5 N M I ;           ",
"# q q # ^ G.k.u.Q.i.g.g.Q , , , , , , 6 R R b _ P d >           ",
"O 3 3 * 2 V T.k.......u.r.6 6 6 6 6 6 R N N i *.P d > O $ -     ",
"% % % 3 # * & I.l U.3.i N f C C f f C i A A A #.g I s . 7 = . % ",
"; 8 e O * r q B l v ] p.) *.] ] 2.l 8.y.] x ) S c U ; + % ; $ 7 ",
"O $ - + : q 2 ! ;.y F A.6.t.M.Z y j ' k y.i <.d V & O       % $ ",
"          : 2 * q.Y.8.k u y ' -.F Z ' 7.y S :.. . * 2 :         ",
"          3 < < . q.N.u y F -.Z Z F u 2.a.d.0.1.^ & < &         ",
"    + o + ; o :   s =.6.{ j j v v u l t.d.K.} P./ E 4 o & &     ",
"        ; 8 = o W a / S x x 3.w w._ A { s. . .s.S I s 3 < 2 & & ",
"        . = - O V 1.Y 7.k ( w w w w.[ p.L. .J.x M d > : 2 # < r ",
"          o   4 U G %.k k ( w w ` D 6 r.{ } } a.M d >   3   < r ",
"O             4 V ,.%.] y Y ` ` z G S.$._ x e.e.<.c O + % ; : # ",
"% . .       o O o z./ M #.) h h >.B.C.H.D.F.0.D ~ W   ; 7 = O . ",
"; 8 = + o   o .   ; T ~ &.h h h P >.5.5.w Z.D g E >   O $ - $ 7 ",
". = $ +     o O   O e e :.m m m m n.z z z z c.x.U O         - 8 ",
"  + +     o & # o   o O > > > 4 > T &.g g g =.8 O & * :     o + ",
"          O 2 <     o o     3 < < W E B B B T O   * 2 . o     + ",
"3       + O # *           o + # &   4 4 > > O o . . : O       % ",
"&   . O . e $ o           . e -   # < *       O = = O     o   - "
};
