/* XPM */
static char *playerrightmv1740740483[] = {
/* columns rows colors chars-per-pixel */
"32 32 176 2 ",
"   c #6FC0A0",
".  c #70C0A1",
"X  c #E57152",
"o  c #71C1A1",
"O  c #72C1A2",
"+  c #6EC09F",
"@  c #AF433E",
"#  c #7CC4A8",
"$  c #76C2A4",
"%  c #6CBF9E",
"&  c #74C2A3",
"*  c #6ABE9C",
"=  c #6BC09D",
"-  c #80C5AA",
";  c #83C7AD",
":  c #78C3A6",
">  c #B0433E",
",  c #70C3A2",
"<  c #5EBA94",
"1  c #CD5D49",
"2  c #67BD99",
"3  c #88C8B0",
"4  c #833E36",
"5  c #63BB96",
"6  c #72BDA0",
"7  c #5BB991",
"8  c #77776A",
"9  c #DA6B4F",
"0  c #9D3D39",
"q  c #7C3533",
"w  c #060507",
"e  c #693330",
"r  c #A46F5E",
"t  c #64302E",
"y  c #DDAD88",
"u  c #CB9476",
"i  c #4DB387",
"p  c #76C0A2",
"a  c #6EC1A0",
"s  c #345A4B",
"d  c #93605E",
"f  c #936B65",
"g  c #402D26",
"h  c #2B3C35",
"j  c #6B3E3D",
"k  c #764944",
"l  c #6A3734",
"z  c #6E7266",
"x  c #74C6A5",
"c  c #D19A7A",
"v  c #A57663",
"b  c #A7433D",
"n  c #6F423F",
"m  c #2D201D",
"M  c #3A3970",
"N  c #69A68E",
"B  c #8E827C",
"V  c #1C191A",
"C  c #20242F",
"Z  c #544837",
"A  c #85564E",
"S  c #8C8C94",
"D  c #876043",
"F  c #829988",
"G  c #52B58B",
"H  c #C25645",
"J  c #2B1616",
"K  c #72C4A4",
"L  c #943D39",
"P  c #833734",
"I  c #B94B41",
"U  c #84B9A3",
"Y  c #719B8A",
"T  c #37443E",
"R  c #8D7972",
"E  c #71B398",
"W  c #383565",
"Q  c #5B786C",
"!  c #B04D46",
"~  c #996656",
"^  c #4B416B",
"/  c #4E5F59",
"(  c #47534E",
")  c #55392F",
"_  c #282D30",
"`  c #C18D71",
"'  c #222249",
"]  c #3C5048",
"[  c #383749",
"{  c #424177",
"}  c #B18493",
"|  c #DFC2C9",
" . c #B19DA3",
".. c #706334",
"X. c #D86A4E",
"o. c #76655F",
"O. c #5FB692",
"+. c #6F2F2C",
"@. c #75A993",
"#. c #95B1A5",
"$. c #71B89C",
"%. c #E26F51",
"&. c #77887B",
"*. c #735C56",
"=. c #C45B4B",
"-. c #62AB8C",
";. c #9E7266",
":. c #BE886E",
">. c #715047",
",. c #C79D7C",
"<. c #292B55",
"1. c #B38E81",
"2. c #80AF99",
"3. c #5C917C",
"4. c #6B9282",
"5. c #608576",
"6. c #D4A381",
"7. c #563332",
"8. c #E27559",
"9. c #AF7C66",
"0. c #6D87A6",
"q. c #483634",
"w. c #88413F",
"e. c #775245",
"r. c #934E4F",
"t. c #B15F60",
"y. c #574C6A",
"u. c #5D343C",
"i. c #AD5548",
"p. c #B195A5",
"a. c #877149",
"s. c #8D6D44",
"d. c #B09249",
"f. c #DAC060",
"g. c #44AF81",
"h. c #756A60",
"j. c #7E4340",
"k. c #619983",
"l. c #949389",
"z. c #73AF98",
"x. c #6FA18D",
"c. c #5E6861",
"v. c #516760",
"b. c #82A596",
"n. c #929E8F",
"m. c #1B0D0D",
"M. c #604339",
"N. c #434F78",
"B. c #68464D",
"V. c #575958",
"C. c #9B91A6",
"Z. c #7A97B3",
"A. c #8EC7AF",
"S. c #495389",
"D. c #CD7A74",
"F. c #9695B5",
"G. c #E7BA91",
"H. c #EACF6B",
"J. c #9996B4",
"K. c #787486",
"L. c #9B90A4",
"P. c #D6D3E3",
"I. c #B2A4BC",
"U. c #AE8491",
"Y. c #CBBBC4",
"T. c #ACADCA",
"R. c #82404E",
"E. c #AE727B",
"W. c #C8AAB7",
"Q. c #9C7A4C",
"!. c #885742",
"~. c #B0994D",
"^. c #A4834E",
"/. c #D3B763",
"(. c #B69A53",
"). c #CDAF5F",
/* pixels */
"        O - :             O - :               o # # . + 5 2     ",
"        & 3 - .   + 5 2 + $ 3 #               O ; - . + 7 5 * < ",
"        . & O . . * i G %   $ & . . . & & .   . & O     % % 7 g.",
"          . O : F 8 z z 8 8 8 8 8 8 8 &.6 a             . . 2 7 ",
"O         o p #.d q 4 4 4 4 4 4 4 4 q j.l.U o         O - # .   ",
"$ : : .   a F k L H X.9 9 9 9 9 9 X.=.b w.R A.O       O ; - $ # ",
"O ; ; o   , F l ! 9 X X X X X X X X 9 1 b r.R #.,     . O o # 3 ",
". $ $   . @.R 4 =.X X X X X X X X X X 8.D.d t B 2.& % +     O : ",
"        $ o.P @ 1 %.X X X X X X X X %.8.|  .t j B E < %         ",
"        p o.q @ I =.%.X X X X X X X 1 =.|  .e  .S ] -.=         ",
"%   .   p h.q @ @ I 1 1 1 1 1 1 1 1 I ! W.p.w.Y.S _ N ,         ",
"* * * + p *.+.0 @ @ > > @ > > > > @ @ ! } U.t.| S C N ,         ",
"2 i G % 6 T J +.L @ @ @ @ @ @ @ @ @ @ @ i.E.I.P.S _ N ,         ",
"% 7 7 2 O.h J l q P P b > > > > > > t.} } p.T.K.z 5.$.a         ",
"O   + * O.h J n l t e L 0 0 0 0 0 0 d C.F.J.L.( Q $ o o # :     ",
"$ $ & + 6 T m j n n n l e t e e e t t j ^ y.*.2.2 *   & 3 - O $ ",
"& ; ; O & -.c.m 7.A 9.` v j ~ v r g ) r ;.d >.E i G % o $ & # 3 ",
"o # : . . = N ( q.e.u G.6.d :.c u ) e.c :.v B $.< < %       $ # ",
"            * 5 ] ) ` y y u u 6.y ~ v y ;.B p . + 2 5 %         ",
"        o x 3.h ..s.A A r u u c c ` r f n.U o .   5 7 %         ",
"    o o p 4.z ..~.(.D k k ~ f f r r >.q.b.K   . O . %   % %     ",
"    o o 6 T Z /.H.f.d.!.j u.W ^ B.A M.g &.E . O ; ; o % 7 5 % * ",
"        6 h m D ).f.d.i.R.M M M ^ 1.y ,.Z v.. o # # . % 5 2 < i ",
"        6 h g s.^.Q.D b q C W M { 1.y ,.g ] o               < i ",
"o       6 / Z a.D k u.r.k C <.<.W f 9.f Z Q .         . $ & % * ",
"$ O O   . 6 Q V ..a.{ 0.Z.0.C w w 7.g m 4.6 o O       & 3 - O O ",
"& ; - o   , 5.w [ y.{ S.N._ w w w m.( k.U ; O O       o # : # 3 ",
"O - # .   o x.V.[ ' ' ' [ s s s s s 3.x # - & .   .         : ; ",
"  . .       = - / V V V / ; , = a K o .   . o o O % 2 %     . . ",
"    o : : . < < z.Y Y Y @.O   < < %   .       o & 5 7 %         ",
"    . O $ & * * o K , , a . o * * % % +       . o % * +         ",
"%       O ; # o   .       O ; # . * < 2       o - - o O o       "
};
