/* XPM */
static char *playermv1740740483[] = {
/* columns rows colors chars-per-pixel */
"32 32 202 2 ",
"   c #6FC0A0",
".  c #70C0A0",
"X  c #6ABE9A",
"o  c #6BBE9C",
"O  c #69BD99",
"+  c #72C1A2",
"@  c #6DBF9E",
"#  c #6CBF9D",
"$  c #68BD99",
"%  c #6ABE9B",
"&  c #6EC09F",
"*  c #73C2A3",
"=  c #77C3A5",
"-  c #68BE9A",
";  c #837A72",
":  c #74C5A5",
">  c #E67151",
",  c #7BC4A8",
"<  c #74C1A3",
"1  c #66BC98",
"2  c #5EBA93",
"3  c #B2453F",
"4  c #6ABD9A",
"5  c #63BC97",
"6  c #271B17",
"7  c #70C4A2",
"8  c #9493B8",
"9  c #08060B",
"0  c #82C6AC",
"q  c #60BB95",
"w  c #5AB891",
"e  c #72C0A1",
"r  c #7FC6AB",
"t  c #6FC2A1",
"y  c #894137",
"u  c #DD6C4F",
"i  c #7C3431",
"p  c #E16F54",
"a  c #BA4F42",
"s  c #5B3D35",
"d  c #9D6E60",
"f  c #457361",
"g  c #704CAA",
"h  c #1A0E0E",
"j  c #72BC9E",
"k  c #52836F",
"l  c #C35244",
"z  c #211718",
"x  c #895D52",
"c  c #DDAF8B",
"v  c #B48067",
"b  c #4CB287",
"n  c #78B89D",
"m  c #76C7A7",
"M  c #D7674D",
"N  c #51B58B",
"B  c #6B8C7D",
"V  c #334D44",
"C  c #775549",
"Z  c #8E3834",
"A  c #913F39",
"S  c #CD9576",
"D  c #3C231E",
"F  c #70302D",
"G  c #5E2C2A",
"H  c #B17D66",
"J  c #843F3B",
"K  c #6B3B36",
"L  c #589F82",
"P  c #6EAE93",
"I  c #B24D47",
"U  c #855656",
"Y  c #96598F",
"T  c #876962",
"R  c #A77962",
"E  c #5D8779",
"W  c #412E24",
"Q  c #6DB599",
"!  c #141625",
"~  c #342B39",
"^  c #C89074",
"/  c #A44F50",
"(  c #AE5F61",
")  c #6A4A3C",
"_  c #4A3433",
"`  c #343460",
"'  c #B16A6D",
"]  c #B68A73",
"[  c #D8BEC8",
"{  c #403E6F",
"}  c #312F49",
"|  c #AB7763",
" . c #976758",
".. c #774E4A",
"X. c #C56867",
"o. c #5E5E71",
"O. c #CC9B7C",
"+. c #2E2E5C",
"@. c #416B5C",
"#. c #CAB1BE",
"$. c #96787C",
"%. c #534C75",
"&. c #BAA1B2",
"*. c #4E324C",
"=. c #D3A07E",
"-. c #974741",
";. c #1D1F31",
":. c #72463F",
">. c #3B373A",
",. c #89C9B0",
"<. c #77AA92",
"1. c #84B29D",
"2. c #853D37",
"3. c #6C7469",
"4. c #81B59F",
"5. c #73B297",
"6. c #889A8B",
"7. c #7B8775",
"8. c #5644BB",
"9. c #CC604D",
"0. c #A03E39",
"q. c #668471",
"w. c #453FCC",
"e. c #CC695C",
"r. c #8E654C",
"t. c #619583",
"y. c #666156",
"u. c #6F7F72",
"i. c #A15B86",
"p. c #55342F",
"a. c #9A8AA3",
"s. c #A5403B",
"d. c #A1725B",
"f. c #89579C",
"g. c #796E8C",
"h. c #657062",
"j. c #AA9BB0",
"k. c #D7A5A4",
"l. c #392D27",
"z. c #D8D4E5",
"x. c #4A2C25",
"c. c #5D4949",
"v. c #B47276",
"b. c #2D1211",
"n. c #A74E41",
"m. c #475F6B",
"M. c #D26D5D",
"N. c #323A49",
"B. c #1F2A2D",
"V. c #E6BA94",
"C. c #6F8DB0",
"Z. c #D4C7D3",
"A. c #BC5C57",
"S. c #D0A584",
"D. c #42497A",
"F. c #D5B8C0",
"G. c #17231F",
"H. c #5B525D",
"J. c #6E685C",
"K. c #829989",
"L. c #72A89D",
"P. c #A45B7A",
"I. c #B56277",
"U. c #70A690",
"Y. c #293A34",
"T. c #92B5AA",
"R. c #516454",
"E. c #8AC1AC",
"W. c #2A4238",
"Q. c #4D4E43",
"!. c #749381",
"~. c #8B6341",
"^. c #24264C",
"/. c #7D776F",
"(. c #828275",
"). c #7C404E",
"_. c #63302C",
"`. c #7F6676",
"'. c #79586A",
"]. c #49446F",
"[. c #605F8B",
"{. c #AD7A80",
"}. c #5FB692",
"|. c #80666F",
" X c #111024",
".X c #B7848C",
"XX c #857084",
"oX c #EAC1BE",
"OX c #D9CDDC",
"+X c #9C5D8D",
"@X c #E4B3B0",
"#X c #5B537A",
"$X c #F2C599",
"%X c #556380",
"&X c #5C758E",
"*X c #375A4B",
"=X c #53628A",
"-X c #97818A",
";X c #465778",
":X c #BDBFDA",
">X c #CF7D6E",
",X c #D3D5E4",
/* pixels */
"# o X X + * + .   . .     +   & o #           + , , . & 5 1     ",
"# X o X # # & .   @ 5 1 & * + <   @ + . .   & + 0 0 + % w q 4 5 ",
"o X X X X X X & . % b N # e < = < = = * = + + = = +   & o # w w ",
"@ X X X X O X #   @ 2 - <.; ; ; ; ; ; ; ; ; ; ; <.7 .   + . 1 1 ",
"+ @ X O O O # o     * 1.d i y y y J J y y y 2.i ; 1.+ + , * @ o ",
"+ @ o O O O o .   t 4.C A a M u e.g 8.P.u u 9.I 2.3.= * = & $ O ",
"- - # o 4 4 o .   : 4.K -.M > p Y i.g w.I.> p M A J.m * e o - X ",
"- O X O $ O O     5.7.J a > > M.8.f.g g Y > > > n.U 6.n   & # X ",
"O O 4 O o o 2 q t q.G s.l u > p Y w.g i.X.> p u l Z K K.t &   @ ",
"- $ 4 o O O q 5 7 f b.0.3 a u > p +Xf.X.> p M a 3 i 6 B t & . & ",
"O $ O $ O % . . m f h 0.3 3 l l e.@XoXk.9.l a 3 3 i z B * . .   ",
"X % - X - # + * U.R.D Z / ( 3 / v.#.[ k.' I I ( / i l.3.L.j .   ",
"% 4 O o X X   * V s ~._.|.a.( .X&.' A.v.&.{.' j.'.K r.W V j     ",
"$ o % $ 2 $ & + W.) d.6 } g.#.OXz.[ F.[ z.Z.j.[.~ x.R W Y.e     ",
"$ % % $ q o   e E y.s D c.XX8 8 8 8 8 8 8 8 a.g.s W ) y.B ,     ",
"@ # o @ o 5 % . r f h ..| ] o.{ ` %.#X%.` ].`.^ d.s h u.E.0 < = ",
"O O o . o b N @ : f 6 v ^ O.c c.l.S.V.] z T c S ^ r.h _ /.= , ,.",
"o % o   o w q   t P q. .H S =.x ) c $XO.s d.=.S | ..} U R (.n r ",
"$ # $ o @ % 5 $ . : P _ s C d d | S.c O.d.d  .C p.~ { $.v C P * ",
"$ $ % o . $ q 5 * j t.! 9 z :. .H v v v H x p.h 9 ! ` T R T 5.t ",
"o & % 4 # @ #   7 k ~ +.+.*.A G 6 6 6 6 6 x.F Z *.^.! 6 Q.T.,   ",
"O @ $ % @ . . . 7 k _ $.-X$.-.F G H.o.H.G F A 3 ).o.L L L 5   # ",
"o % $ # . + < . t B x c V.=...-.X.#.:X&.A.3 s.Z F h.m * - $ 2 b ",
"% 4 1 o .       : !.x ] S H :.n.>XZ.,XF.M.a i z 9 V : . .   2 b ",
"O O 1 o .       * n 6.x U :.6 b.D >.>.>.D *.%.&XB.V : + = * @ % ",
"$ O X o &         t n 7.u.h.*XB.9 9 9 ;.N.;X=Xm.m.k * * ,.r . . ",
"X X X X #         + 0 r t - N @.G.G.} D.C.C.%X9 k m . + , = +   ",
"X X - X &         + r , + % N }.j j @.;.{ D.` 9 k :         +   ",
"X O O o   & $ $ &   . . .   # # @ * Q E ;. XN.t.Q # 1 @     .   ",
"- X - @   & 2 w @           @ 2 2 & : Q f @.E <   q w %         ",
"$ $ - @ . . % %           . + # % & @ + : : 7   + @ $ &         ",
"# @ e @ . 0 ,             < 0 , . # 2 $       + 0 r .           "
};
