/* XPM */
static char *playerleft1740740483[] = {
/* columns rows colors chars-per-pixel */
"32 32 167 2 ",
"   c #6FC0A0",
".  c #70C0A1",
"X  c #E37152",
"o  c #72C1A2",
"O  c #6FBF9F",
"+  c #70C1A1",
"@  c #6BBE9C",
"#  c #76C2A4",
"$  c #68BD9A",
"%  c #AE433E",
"&  c #62BB96",
"*  c #7BC4A8",
"=  c #66BC98",
"-  c #6EC09F",
";  c #78C3A6",
":  c #73C2A3",
">  c #72C3A3",
",  c #7EC5AA",
"<  c #82C7AC",
"1  c #D3624B",
"2  c #86C8AF",
"3  c #5AB891",
"4  c #7C4844",
"5  c #6CBF9E",
"6  c #78BBA0",
"7  c #95A598",
"8  c #B75943",
"9  c #55B68D",
"0  c #5EBA93",
"q  c #74AA94",
"w  c #383B3A",
"e  c #9C3D39",
"r  c #B1453F",
"t  c #558672",
"y  c #936558",
"u  c #BB8C70",
"i  c #B44940",
"p  c #815C5B",
"a  c #74B79C",
"s  c #895D54",
"d  c #454748",
"f  c #7F3936",
"g  c #744844",
"h  c #663D39",
"j  c #67302D",
"k  c #8AA694",
"l  c #97433C",
"z  c #8DAC9A",
"x  c #833531",
"c  c #73A590",
"v  c #7F9583",
"b  c #131212",
"n  c #211C1E",
"m  c #2A1718",
"M  c #6D3531",
"N  c #584A64",
"B  c #7D5844",
"V  c #28284C",
"C  c #703C3A",
"Z  c #D5A686",
"A  c #272133",
"S  c #C59579",
"D  c #B4826C",
"F  c #CF9A7A",
"G  c #88584D",
"H  c #47B084",
"J  c #77C0A2",
"K  c #81AF9A",
"L  c #DC6A4F",
"P  c #77504B",
"I  c #495348",
"U  c #AC4942",
"Y  c #96A195",
"T  c #6CB497",
"R  c #929389",
"E  c #473C2F",
"W  c #392220",
"Q  c #503236",
"!  c #623533",
"~  c #19111A",
"^  c #422924",
"/  c #7E7C89",
"(  c #080608",
")  c #826348",
"_  c #2C2B39",
"`  c #C49074",
"'  c #604338",
"]  c #AD7A67",
"[  c #C35445",
"{  c #779C8D",
"}  c #69AF91",
"|  c #381C1B",
" . c #73746F",
".. c #B85147",
"X. c #AF5149",
"o. c #A5413C",
"O. c #C75847",
"+. c #9D7E71",
"@. c #446656",
"#. c #5A645E",
"$. c #69BB99",
"%. c #773331",
"&. c #5B492D",
"*. c #894542",
"=. c #BD6965",
"-. c #7EBDA3",
";. c #8F5856",
":. c #2E4A40",
">. c #9C5353",
",. c #517369",
"<. c #B295A0",
"1. c #D5C3D1",
"2. c #C4A8B1",
"3. c #818284",
"4. c #A57666",
"5. c #6D9382",
"6. c #913D3C",
"7. c #C8AB5E",
"8. c #B79DAC",
"9. c #BFA15C",
"0. c #786C6A",
"q. c #B08795",
"w. c #6E413F",
"e. c #7B8C81",
"r. c #B17A86",
"t. c #545B59",
"y. c #652928",
"u. c #9792B2",
"i. c #271110",
"p. c #E3B68E",
"a. c #37325E",
"s. c #2B3245",
"d. c #66566E",
"f. c #A6705D",
"g. c #82665D",
"h. c #949086",
"j. c #61937F",
"k. c #71AE96",
"l. c #5F8F7E",
"z. c #E17459",
"x. c #83C1A8",
"c. c #63614F",
"v. c #CE6554",
"b. c #DEAAA8",
"n. c #68A08A",
"m. c #A0894A",
"M. c #DDB5B8",
"N. c #668377",
"B. c #987A7F",
"V. c #AF5658",
"C. c #8D9C8E",
"Z. c #A49F97",
"A. c #5D8C79",
"S. c #C2B3BD",
"D. c #AE727B",
"F. c #958CA0",
"G. c #9C8394",
"H. c #A5A4BE",
"J. c #AA8173",
"K. c #8D6B45",
"L. c #89763E",
"P. c #B39452",
"I. c #966B59",
"U. c #696383",
"Y. c #4F627A",
"T. c #494678",
"R. c #654F53",
/* pixels */
"    . * < #     $ 3 &   # < * +               ; < ; O $ 0 = & 9 ",
"      o o       & H 3 @ @ . .             .   . : o   O @ 5 3 H ",
"              . @ & $ $ & - + : : > : : : : +         + o . = & ",
"              . O . 6 k k k 7 7 7 7 7 7 7 z 6 . .     ; < ; .   ",
"* o           o # , Y P g 4 4 4 4 4 4 4 4 s z . .     # < * ; , ",
"< :       . o # x.R s l X.8 8 8 8 8 8 8 U l g.k J .   . o o , 2 ",
"# +         + 6 v ;.l O.L X X X X X X X 1 ..f h.J - - -   . : * ",
"    .   $ = a v g >.=.X X X X X X X X X X 1 l +.a & = -         ",
"      . $ T e.P C <.b.z.X X X X X X X X X L i *. .} & -         ",
"    . # T ,.3.B.g 2.M.v.L X X X X X X X 1 [ i x p K -           ",
"@ 5 + < q w 3.S.;.8.2...O.1 1 1 1 1 1 1 [ r % x p K + .       O ",
"9 $ . * c w / 1.=.q.q.U r r r r r r r r % % o.%.p K + .         ",
"9 $ $ 5 n.w / 1.8.D.V.U % % % % % % % % % o.f | d q o +         ",
"@ @ 3 & T A. ./ H.<.r.r.X.% % % % % % 6.x f M m w q : o # o     ",
"o   @ $ + O t t.F.u.u.G.>.e e e e e e %.j ! h | w q : * 2 , + o ",
", o 5 0 & 5 # z p N N h j j M M j j M C w.w.h W d c + # , ; * 2 ",
", : 5 3 9 5 : z p y 4.y ^ h f.f.G G u D y h W #.c $.-     . * 2 ",
"o .   @ $ @ - 6 R +.D ` ' ) F S ] D p.Z y Q t.c o 5 @       . o ",
"        $ 3 = + -.R J.S I.D Z F ` F Z ` B E e.a   0 & O         ",
"        5 = $ . o -.Z.y ] u S u u ] s G K.L.I 5.6 $ = 5         ",
"    . ; * o     o : Y g G y G ' R.d.N ) P.7.m.0.N.a   @ & @ .   ",
"    . , < :     @ $ Y C f *.C A V T.0.u 7.9.9.&.d q + $ 3 = $ & ",
"    . # # o .   = 9 C.! x e 6.a.a.U.Z p.u B B ^ w q +   @ 5 9 H ",
"                5 $.e.n m y.f A V d.S F 4.P ) E d k.+   . - & 3 ",
"                O 5.N A ( i.^ d s._ ' s s g &.c.l.O   : * #   O ",
"# +           + 6 I ~ V m ~ A Y.s.( ( W ! Q E v O o . ; 2 * # # ",
"< o           + 6 #.b ~ y.Q V _ n b b n n w { a o # + o # : * 2 ",
"* o       O     J { #.b i.m _ ,.t t t t t j.6 . . O -     . ; , ",
".       @ & $   . ; q I :.:.@.} > > > > > :     5 $ = O     . . ",
"        = 3 =       . O . O & 0 5 o .           @ 0 0 5         ",
"      o O @ 5           . o 5 5 - O -         + + @ @           ",
"    . , , o             # < * + @ 0 = -       ; < ; .           "
};
