/* XPM */
static char *playerbackmv1740740483[] = {
/* columns rows colors chars-per-pixel */
"32 32 160 2 ",
"   c #6FC0A0",
".  c #6EC09F",
"X  c #6DBF9E",
"o  c #E57152",
"O  c #70C1A1",
"+  c #73C1A2",
"@  c #6ABE9C",
"#  c #70C0A0",
"$  c #78C4A6",
"%  c #70C0A1",
"&  c #67BD9A",
"*  c #7BC5A8",
"=  c #AF433E",
"-  c #110A0A",
";  c #72C4A3",
":  c #74C2A4",
">  c #82C7AC",
",  c #DF6E50",
"<  c #662F2D",
"1  c #70BF9F",
"2  c #AC423D",
"3  c #86C8AF",
"4  c #7FC5AB",
"5  c #62BB96",
"6  c #5DB992",
"7  c #904438",
"8  c #C35546",
"9  c #422826",
"0  c #706159",
"q  c #9A3C39",
"w  c #A4403C",
"e  c #6D3F3A",
"r  c #76C3A5",
"t  c #62BD97",
"y  c #7B3330",
"u  c #704541",
"i  c #1D1211",
"p  c #603B38",
"a  c #4BB286",
"s  c #5AB890",
"d  c #CA5B48",
"f  c #B3463F",
"g  c #6F3735",
"h  c #74BEA0",
"j  c #6FC2A1",
"k  c #6BB294",
"l  c #947471",
"z  c #5E8877",
"x  c #583532",
"c  c #493829",
"v  c #2B2B29",
"b  c #A27E4C",
"n  c #8D6548",
"m  c #ECCC6A",
"M  c #BB6347",
"N  c #913B36",
"B  c #86C0A7",
"V  c #74645C",
"C  c #381716",
"Z  c #7BBCA2",
"A  c #3C4241",
"S  c #3E4A4C",
"D  c #855A47",
"F  c #926D4C",
"G  c #484272",
"H  c #5E2B27",
"J  c #7DAF9B",
"K  c #76584E",
"L  c #473755",
"P  c #2A3334",
"I  c #571F1E",
"U  c #F4DA6F",
"Y  c #EBD06B",
"T  c #1A191D",
"R  c #956851",
"E  c #54B68C",
"W  c #863B36",
"Q  c #648E78",
"!  c #85CBB0",
"~  c #849E90",
"^  c #74B599",
"/  c #7CC1A5",
"(  c #6B4A35",
")  c #60533B",
"_  c #1E1E2D",
"`  c #68AC91",
"'  c #291A16",
"]  c #5E9881",
"[  c #689E88",
"{  c #4B5049",
"}  c #886766",
"|  c #73A590",
" . c #795045",
".. c #535E55",
"X. c #3E2620",
"o. c #8D4245",
"O. c #39376F",
"+. c #52302D",
"@. c #232141",
"#. c #D5B85E",
"$. c #AF9448",
"%. c #BC9E51",
"&. c #A88B48",
"*. c #2D2B55",
"=. c #904B45",
"-. c #D9684E",
";. c #67C09C",
":. c #BB4E42",
">. c #D3644B",
",. c #B24840",
"<. c #84AD9B",
"1. c #66B895",
"2. c #5F7566",
"3. c #61A98B",
"4. c #863632",
"5. c #657E75",
"6. c #623F35",
"7. c #93A195",
"8. c #A97C6A",
"9. c #7FC3A7",
"0. c #814E45",
"q. c #A84D3E",
"w. c #654055",
"e. c #312024",
"r. c #566662",
"t. c #3C5D50",
"y. c #AE5A42",
"u. c #5C707E",
"i. c #576389",
"p. c #AC7548",
"a. c #896140",
"s. c #F2D96E",
"d. c #75968A",
"f. c #773F4E",
"g. c #AB5044",
"h. c #DCBF63",
"j. c #161312",
"k. c #727C6E",
"l. c #6E6E61",
"z. c #768877",
"x. c #592422",
"c. c #559178",
"v. c #7D5C3D",
"b. c #8AA393",
"n. c #82B6A0",
"m. c #4D201E",
"M. c #6B89A2",
"N. c #4E7B68",
"B. c #92524A",
"V. c #607B91",
"C. c #50232C",
"Z. c #857E64",
"A. c #584C67",
"S. c #C4AA54",
"D. c #A0884E",
"F. c #868B85",
"G. c #564E68",
"H. c #514B43",
"J. c #302739",
"K. c #BC8A77",
/* pixels */
"    & 5 X * $                   + + #             $ 4 +         ",
"5 & 5 6 # 3 4 #           #     O : +   @ 5 X   # 4 3 :         ",
"a s X X % : +   # % # 1 1 1 1 + + 1 X 1 s a &     + : %         ",
"6 &             O : k.0 0 0 0 0 V 0 0 l.2.[ j                   ",
"                Z ~ 0.W 7 7 7 7 7 7 7 7 W } ~ h               + ",
"$ * r #       O <.u w d , , , , , , , -.:.N  .^ O       % r $ : ",
"> 3 > O       ; 7.g 8 , o o o o o o o o -.q.u ^ j .     O > 3 + ",
": : :       1 | l W >.o o o o o o o o o o y.o.z.k O       : : % ",
"        . t 1.V y ,.>., o o o o o o o o , d w < Q ;.X           ",
"        . t 1.V y f ,.d o o o o o o o , 8 f w < Q ;..           ",
"            h ..x.2 = :.8 d 8 d 8 8 8 8 f = q C z * + X       . ",
"  @ @     : / S C q 2 = = = 2 f 2 = = = 2 2 4.- z ! : :   @ @ @ ",
"@ a E X   : / A ' < q 2 = 2 w w w = = = 2 N H - z ! r O X E a & ",
"X s 6 & t 3.t.) ( g y q = = < C C N f 2 4.g e ( ) 5.h . . 6 s X ",
"O X   & t c.- v.n x < y q q m.- i y q N g +.6.b X.A Z O * : X + ",
": : :   . ] v F K - x g < < < H H < < < e 9 i 8.c S Z : 3 4 : : ",
": 3 > O & ` <.{ i - x e u n  .e e a.D e u 9 - ' 9 } B . : r > : ",
"O $ $ % @ k 1 Q { e.X.9 +.D  .u u D ( 9 9 e._ c 6.l B .   % r O ",
"        X 5 O $ 7.p i - i x p p p p 9 - - _ G 8.D l B X         ",
"        @ 3.# $ d.T *.L +.i - - - - ' x p L O.G w.l B @         ",
"      X   1 9.z S @.L K a.H I I I I e F =.w.O.@.r.b.9.. X @     ",
".     & X h | H.J.O.f.n b M M M M M p.b g.f.L P ] ! % @ 6 5 X   ",
"@     X j | P n } G o.=.n h.m m m m %.0.w o.K ^ * * % X 5 & 5 E ",
"&       ; [ T R K.l g.y.&.Y s.s.s.U #.p.q.y c k O       .   6 a ",
"#       O k ..K R R =.R %.h.Y s.s.m #.$.B.C._ ` O     % : : X @ ",
": + +     O Z { j.T *.V $.%.#.Y Y S.$.D.A.@.v k O     : 3 4 + + ",
"> > 4 O     + ` ] d.P j.c &.b F F &.b G.G i.[ 1 %     O $ r * 3 ",
"4 4 * %       j ; * N.t...) c X.9 Z.F.i.*.u.$               r > ",
"# # %     . & & X # $ > J A v v v u.M.V.A 2.#     @ & X     # % ",
"          X 6 6 X       + n.J J J S T P ~ /     X 5 s X         ",
"        .   X @           . O @ @ z r.5.h +     O X @ X         ",
"        O > * O #         + > $ # . t X       O r 4 > +       X "
};
