/* XPM */
static char *wall1740220234[] = {
/* columns rows colors chars-per-pixel */
"32 32 147 2 ",
"   c #6FC0A0",
".  c #384E04",
"X  c #386919",
"o  c #6ABE9C",
"O  c #63BC98",
"+  c #395A0C",
"@  c #6DBF9F",
"#  c #3B701E",
"$  c #66BD9A",
"%  c #73C2A3",
"&  c #396C1A",
"*  c #77C3A6",
"=  c #70C0A1",
"-  c #AEF77E",
";  c #60B181",
":  c #55B78F",
">  c #386312",
",  c #477624",
"<  c #5DBA94",
"1  c #8CD265",
"2  c #387620",
"3  c #395E11",
"4  c #396616",
"5  c #3C741F",
"6  c #6ABB97",
"7  c #7CC5A9",
"8  c #65AE4F",
"9  c #68A244",
"0  c #1C9C61",
"q  c #1AA068",
"w  c #377824",
"e  c #7EC15C",
"r  c #9BE06F",
"t  c #42AF83",
"y  c #70C1A1",
"u  c #398931",
"i  c #437C2D",
"p  c #96DD6E",
"a  c #5C8B32",
"s  c #51812A",
"d  c #5BA144",
"f  c #88CC62",
"g  c #436B1A",
"h  c #7DC65F",
"j  c #5C8E36",
"k  c #80C6AC",
"l  c #385309",
"z  c #388229",
"x  c #3B7D27",
"c  c #3D441F",
"v  c #67B28B",
"b  c #6DB150",
"n  c #499136",
"m  c #56842D",
"M  c #669D41",
"N  c #4D963A",
"B  c #93D96C",
"V  c #6FB450",
"C  c #76B050",
"Z  c #259551",
"A  c #2EA570",
"S  c #538E55",
"D  c #66B68C",
"F  c #655754",
"G  c #3B6E24",
"H  c #70BB54",
"J  c #589237",
"K  c #559E40",
"L  c #76B757",
"P  c #488C32",
"I  c #63963D",
"U  c #64A94B",
"Y  c #9FE672",
"T  c #619237",
"R  c #90D567",
"E  c #82C95F",
"W  c #38872D",
"Q  c #4EB389",
"!  c #387F28",
"~  c #A2E975",
"^  c #407A24",
"/  c #436515",
"(  c #59A443",
")  c #527C28",
"_  c #6DAF4C",
"`  c #559351",
"'  c #A9F07B",
"]  c #6A9B3D",
"[  c #5BAC76",
"{  c #2E8C3E",
"}  c #4F9B5A",
"|  c #5FA375",
" . c #4B4536",
".. c #399857",
"X. c #63AB81",
"o. c #7DBE5C",
"O. c #5CB68E",
"+. c #84C45C",
"@. c #38852B",
"#. c #7AB753",
"$. c #A7EF78",
"%. c #4A711E",
"&. c #64A647",
"*. c #76AD4B",
"=. c #84BF56",
"-. c #385105",
";. c #239857",
":. c #33A978",
">. c #395509",
",. c #406022",
"<. c #423E2C",
"1. c #58A261",
"2. c #476F2E",
"3. c #ADF57D",
"4. c #539F52",
"5. c #3A4A0F",
"6. c #578A3D",
"7. c #4CAA7A",
"8. c #62A97D",
"9. c #59AA66",
"0. c #66B263",
"q. c #5D9A69",
"w. c #55A56A",
"e. c #76BC57",
"r. c #A1E582",
"t. c #52884B",
"y. c #6CAA49",
"u. c #53872E",
"i. c #2B7B33",
"p. c #23884B",
"a. c #575A3F",
"s. c #554D3F",
"d. c #458441",
"f. c #5C4F4C",
"g. c #5E9C3F",
"h. c #ADF582",
"j. c #297634",
"k. c #84C7AD",
"l. c #4E7C42",
"z. c #5E644F",
"x. c #576243",
"c. c #71BB8D",
"v. c #4D862E",
"b. c #629A58",
"n. c #5EAE4D",
"m. c #62B273",
"M. c #A7EB90",
/* pixels */
"O O $ O                     ; [ 6 O O O $                       ",
"  @ $ <     % k y     y 6 q.b e.1.X.@ O O     * 7 = =           ",
"7 7   < : @ % 7 % k @ 6 ` i B ' M d.8.@ : :   * 7 * k =         ",
"* *   $ < o       c.9.4.#.K p p ( b 8 4.9.O.o     % *       o @ ",
"      = $ <   o ; K e.( +.8 r R ( E _ L 0...7.6 y         o : o ",
"      % * @ 6 m.8 U H V j f 3.R e.e J C h n.8 0.D   =   % 7 @   ",
"      * k y 8.6.f r.r B f ~ - Y p f b h 1 1 ~ _ t.O.: @ % k y   ",
"      = @ D ` g m e.p ' 3.- - - - ~ 1 p p h 9 %., w.Q o <       ",
"y y   6 X.0.1 *.%.1 p H ~ - - - - - $.h f Y M s f h 9.D O $ @   ",
"7 k y X.` +.B E d =.( h $.$.3.- - Y r.B 8 U V _ B 1 C S O.t o = ",
"y y   v t.I h 1 &., ^ C Y h Y M.h.H h 1 J # P e.1 _ j q.6 $ O @ ",
"    D ` , T V ( n K j j ] s R ' +.m y.*.a P u N 8 y.m i w.6 < o ",
"o ; 4.&.j 3 u.E f r E d M ] I T I 9 g.V B B f 1 b g / &.d w.6   ",
": 7.` T 9 ) =.1 e ' R N R E C C L B b V ~ B E r R ] ) *.6.| o   ",
"o S ) 9 9 g.s u.=.Y J / *.8 r $.H #.a & e r ] , , j 9 9 I 2.D y ",
"8.2.3 , j U C N i ] 5 4 / #.' h.r m 3 X a T s K U b d m g 3 v y ",
"| 2.>./ j U o.b u 5 @.@.5 ] p r.=.) w u ^ w K o.e L d ) + ,.v y ",
"q.6.I s g &.b N n 8 8 n & # a T i X x d 8 d n N d _ J / T I t.v ",
"b.J P P ^ , ^ %.b e e 9 g x 9 y.N & s L +.o.J X 5 ^ P z n M i 7.",
"S g v.N z X l / M o.9 , 2 n L e U x # a C #.) l 3 2 u n , 4 ..Q ",
"| 6.a s & & X X # m 3 4 # m L e M , X + %.s & X & & 5 a u.d.Q o ",
"= X.S l.4 z ! X & # X >.> + P K g > + 3 # & X 5 @.5 3 i.p.A : o ",
"k k.  D S 4 > 3 2 z 4 + # 2 4 > # 2 > + 2 z X + > G p.q q q :.O ",
"= %   % | X # w @.2 > # @.u z z W u x > X z ! 2 X j.0 q q 0 q t ",
"@ = = 6 } & >.+ & + X & z u W x z W w w 2 & 4 >.X Z q 0 ;.Z ;.A ",
"@ y D } 4 -.. . -.. l ,.G ! 5 ,., w X w W w 3 . + i.Z 0 Z 0 ;.:.",
": : [ 5 . . . . . . c <.s.x.a.F z.a. .c G 2 + . . > { 0 Z q A : ",
"O $ [ x l . . . . . 5.<.f.F F F F F  .c l + . . . X { 0 0 q t $ ",
"* * o [ i 3 + . . . . 5.c  .s.f. .<.c . . . l + X { 0 A :.t O   ",
"7 7     D } S X 4 > l . . . c c 5.. . 3 X > w { Z A t Q Q o : o ",
"=       $ < D 1.1.} i G G # G G # # # u ....A t t < @ O Q $ t O ",
"        o $     y o v ; ; ; ; ; ; ; ; O.< O o               $ @ "
};
